<?xml version="1.0" encoding="utf-8"?>
<!-- Generator: Adobe Illustrator 22.1.0, SVG Export Plug-In . SVG Version: 6.00 Build 0)  -->
<svg version="1.1" id="Capa_1" xmlns="http://www.w3.org/2000/svg" xmlns:xlink="http://www.w3.org/1999/xlink" x="0px" y="0px"
	 viewBox="0 0 774.3 774.3" style="enable-background:new 0 0 774.3 774.3;" xml:space="preserve">
<style type="text/css">
	.st0{fill:#AF000D;}
</style>
<g>
	<g>
		<path class="st0" d="M640.3,91.2H537V24c0-13.5-10.9-24-24.4-24c-1.3,0-2.2,0.4-2.6,0.9c-0.4-0.4-1.3-0.9-1.8-0.9h-243h-1.7h-1.8
			c-13.5,0-24,10.5-24,24v67.2H133.9c-29.7,0-52.8,23.1-52.8,52.8v38.4v48h45.8v491.6c0,29.7,22.7,52.3,52.3,52.3H595
			c29.7,0,52.8-22.7,52.8-52.3V230.3h45.4v-48V144C693.1,114.3,670,91.2,640.3,91.2z M285.7,48h202.8v43.2H285.7V48z M599.3,721.9
			c0,3.1-1.3,4.4-4.4,4.4H179.3c-3.1,0-4.4-1.3-4.4-4.4V230.3h424.4V721.9z M644.7,182.3H129.6V144c0-3.1,1.3-4.8,4.4-4.8h506.4
			c3.1,0,4.4,1.7,4.4,4.8L644.7,182.3L644.7,182.3z"/>
		<rect x="475" y="286.6" class="st0" width="48.4" height="396.9"/>
		<rect x="363.4" y="286.6" class="st0" width="48.4" height="396.9"/>
		<rect x="251.7" y="286.6" class="st0" width="48.4" height="396.9"/>
	</g>
</g>
</svg>
