<?xml version="1.0" encoding="utf-8"?>
<!-- Generator: Adobe Illustrator 22.1.0, SVG Export Plug-In . SVG Version: 6.00 Build 0)  -->
<svg version="1.1" id="Capa_1" xmlns="http://www.w3.org/2000/svg" xmlns:xlink="http://www.w3.org/1999/xlink" x="0px" y="0px"
	 viewBox="0 0 60 60" style="enable-background:new 0 0 60 60;" xml:space="preserve">
<style type="text/css">
	.st0{fill:#FFFFFF;}
</style>
<g>
	<path class="st0" d="M36,16c0-3.3-2.7-6-6-6s-6,2.7-6,6v5h-5v19h22V21h-5V16z M26,16c0-2.2,1.8-4,4-4s4,1.8,4,4v5h-8V16z M39,23v15
		H21V23h3h12H39z"/>
	<path class="st0" d="M29,32.9V35c0,0.6,0.4,1,1,1s1-0.4,1-1v-2.1c1.7-0.4,3-2,3-3.9c0-2.2-1.8-4-4-4s-4,1.8-4,4
		C26,30.9,27.3,32.4,29,32.9z M30,27c1.1,0,2,0.9,2,2s-0.9,2-2,2s-2-0.9-2-2S28.9,27,30,27z"/>
	<path class="st0" d="M30,0C15.1,0,3,12.1,3,27c0,14.1,10.9,25.7,24.7,26.9l-4.4,4.4c-0.4,0.4-0.4,1,0,1.4c0.2,0.2,0.5,0.3,0.7,0.3
		s0.5-0.1,0.7-0.3l6-6c0.1-0.1,0.2-0.2,0.2-0.3c0.1-0.2,0.1-0.5,0-0.8c-0.1-0.1-0.1-0.2-0.2-0.3l-6-6c-0.4-0.4-1-0.4-1.4,0
		s-0.4,1,0,1.4l4.2,4.2C14.9,50.6,5,39.9,5,27C5,13.2,16.2,2,30,2s25,11.2,25,25c0,6.6-2.6,12.9-7.2,17.6c-0.4,0.4-0.4,1,0,1.4
		c0.4,0.4,1,0.4,1.4,0c5-5.1,7.8-11.8,7.8-19C57,12.1,44.9,0,30,0z"/>
</g>
</svg>
